<svg xmlns="http://www.w3.org/2000/svg" width="148" height="25" viewBox="0 0 148 25">
    <defs>
        <linearGradient id="a" x1="-.044%" x2="99.968%" y1="50.04%" y2="50.04%">
            <stop offset="0%" stop-color="#FC2D00"/>
            <stop offset="98.88%" stop-color="#F49E16"/>
        </linearGradient>
    </defs>
    <g fill="none" fill-rule="nonzero">
        <path fill="url(#a)" d="M132.661 1L130 18.292l2.102.708c7.675 0 14.212-5.744 15.33-13.495l.56-3.856a.561.561 0 0 0-.54-.649h-14.79z"/>
        <g fill="#FFF">
            <path d="M4.587 6.25H3.31c-.857 0-1.333.423-1.466 1.288L.075 19.135c-.02.192.057.288.247.288h2.266c.19 0 .304-.096.323-.288L4.834 6.538c.038-.192-.057-.288-.247-.288zM3.882 3.73c1.123 0 1.752-.557 1.923-1.692.19-1.173-.286-1.75-1.39-1.75-1.123 0-1.79.577-1.96 1.75-.172 1.116.304 1.693 1.427 1.693zM20.14 5.75c-.78 0-1.504.077-2.208.23-.705.155-1.295.29-1.79.443a5.18 5.18 0 0 0-1.37-.48 9.277 9.277 0 0 0-1.847-.174c-.952 0-1.828.058-2.608.154s-1.542.212-2.285.365c-.704.135-1.104.539-1.18 1.174l-1.77 11.73c-.02.193.076.289.323.289h2.227c.248 0 .381-.096.4-.289L9.555 9.058c.038-.289.19-.423.438-.423.457-.154 1.104-.231 1.98-.231 1.104 0 1.79.173 2.056.52.266.345.324.922.19 1.75l-1.275 8.518c-.02.193.057.289.247.289h2.304c.247 0 .38-.096.4-.289l1.523-10.134c.038-.25.17-.385.361-.423a8.411 8.411 0 0 1 2.056-.231c.914 0 1.542.192 1.847.558.304.365.38 1.038.228 2l-1.237 8.23c-.02.193.076.289.324.289h2.227c.247 0 .38-.096.4-.289l1.294-8.654c.476-3.211-1.123-4.788-4.778-4.788zM37.254 6.288c-.837-.326-1.98-.48-3.426-.48-1.047 0-1.923.038-2.628.134a51.1 51.1 0 0 0-2.189.346c-.362.077-.647.193-.818.366-.172.173-.305.423-.362.77l-2.57 16.73c-.038.211.057.308.247.308h1.314c.838 0 1.313-.443 1.447-1.327l.59-3.808c.285.02.685.058 1.2.077.513.02 1.122.038 1.808.038.875 0 1.732-.096 2.57-.269.837-.173 1.599-.5 2.284-1 .686-.5 1.295-1.173 1.79-2.038.495-.866.856-1.981 1.066-3.347.152-1.057.228-2.019.171-2.865-.057-.846-.266-1.577-.647-2.211-.38-.635-1.01-1.097-1.847-1.424zm-.59 6.5a12.38 12.38 0 0 1-.419 1.789c-.171.52-.438.942-.78 1.27-.343.345-.8.595-1.352.768-.552.173-1.256.27-2.113.27-.533 0-1.066-.02-1.618-.058-.552-.039-.914-.096-1.123-.173l1.16-7.52c.02-.192.077-.326.153-.384.076-.058.172-.135.286-.173.247-.077.552-.135.952-.154.4-.02.856-.058 1.39-.058.78 0 1.427.058 1.941.154.495.116.895.327 1.161.635.286.308.438.77.476 1.346.077.558.02 1.327-.114 2.288zM49.362 6.058a37.259 37.259 0 0 0-1.066-.116c-.4-.038-.8-.038-1.2-.038-1.694 0-3.045.384-4.016 1.134-.971.75-1.6 1.981-1.847 3.654l-1.275 8.346c-.039.231.057.347.247.347h2.246c.229 0 .362-.116.4-.347l1.333-8.769c.114-.673.362-1.154.761-1.423.4-.27.971-.423 1.676-.423.552 0 1.104 0 1.656.02.552 0 .933.019 1.161.019.21 0 .324-.097.343-.289l.247-1.25c.076-.5-.152-.788-.666-.865zM63.659 8.212c-.095-.462-.362-.885-.762-1.27-.4-.384-.99-.692-1.732-.923-.762-.23-1.751-.365-2.95-.365-1.048 0-1.98.096-2.818.308a5.563 5.563 0 0 0-2.209 1.096c-.628.519-1.16 1.211-1.58 2.096-.419.865-.723 1.961-.894 3.25-.153 1.077-.21 2.058-.134 2.923.076.865.324 1.596.743 2.192.419.596 1.028 1.058 1.846 1.404.819.327 1.885.5 3.218.5.894 0 1.713-.02 2.417-.038.705-.02 1.276-.058 1.733-.116.323-.038.59-.154.8-.307.209-.154.323-.424.323-.77l.133-1.211c.038-.231-.057-.346-.247-.346-.095 0-.305.019-.61.038-.304.02-.666.058-1.104.096-.418.039-.875.058-1.332.096-.457.02-.914.039-1.333.039-1.256 0-2.17-.154-2.741-.462-.571-.307-.876-.923-.914-1.865l5.273-.923c.78-.135 1.466-.308 2.056-.52.59-.21 1.066-.442 1.466-.75.4-.307.724-.692.952-1.134.228-.442.38-.98.476-1.577.057-.52.038-1-.076-1.461zm-3.084 2.153c-.076.193-.21.347-.4.5-.19.135-.476.27-.838.385-.361.115-.837.23-1.427.327l-4.227.73.057-.422c.115-.712.248-1.308.42-1.789.17-.48.418-.884.742-1.173.323-.308.742-.52 1.256-.654s1.142-.192 1.923-.192c1.047 0 1.79.135 2.19.385.399.269.57.673.475 1.23-.038.25-.095.481-.171.673zM74.796 5.942c-.381-.077-.857-.154-1.428-.192-.571-.058-1.39-.077-2.494-.077-2.094 0-3.636.385-4.626 1.154-.99.77-1.58 1.73-1.752 2.885-.133.923.02 1.653.457 2.192.457.538 1.333 1 2.627 1.365l3.408 1c.362.135.666.27.933.443.266.173.38.442.305.807-.077.481-.362.846-.895 1.116-.514.269-1.352.403-2.456.403-1.542 0-2.665-.115-3.389-.365-.723-.25-1.218-.365-1.485-.365-.17 0-.285.096-.304.288l-.248 1.308c-.095.615.115.98.648 1.134.514.154 1.16.27 1.903.347a27.69 27.69 0 0 0 2.76.115c2.038 0 3.56-.365 4.589-1.096 1.028-.73 1.637-1.75 1.846-3.096.134-.923-.019-1.673-.495-2.25s-1.294-1.02-2.494-1.346l-3.502-.981c-.933-.25-1.352-.654-1.257-1.27.076-.519.381-.884.895-1.076.514-.193 1.294-.289 2.322-.289.762 0 1.39.02 1.904.058.514.038.914.077 1.238.115.323.039.57.077.78.096.21.02.38.039.514.039.152 0 .248-.077.267-.25l.19-1.23c.114-.347.076-.578-.095-.732-.171-.154-.38-.211-.666-.25zM87.74 5.942c-.38-.077-.856-.154-1.427-.192-.571-.058-1.39-.077-2.494-.077-2.094 0-3.636.385-4.626 1.154-.99.77-1.58 1.73-1.751 2.885-.134.923.019 1.653.457 2.192.437.538 1.332 1 2.627 1.365l3.407 1c.362.135.667.27.933.443.267.173.38.442.305.807-.076.481-.362.846-.895 1.116-.514.269-1.352.403-2.456.403-1.542 0-2.665-.115-3.388-.365-.724-.25-1.219-.365-1.485-.365-.172 0-.286.096-.305.288l-.247 1.308c-.096.615.114.98.647 1.134.514.154 1.161.27 1.904.347a27.69 27.69 0 0 0 2.76.115c2.037 0 3.56-.365 4.588-1.096 1.028-.73 1.637-1.75 1.847-3.096.133-.923-.02-1.673-.495-2.25-.476-.577-1.295-1.02-2.494-1.346l-3.503-.981c-.933-.25-1.352-.654-1.257-1.27.077-.519.381-.884.895-1.076.514-.193 1.295-.289 2.323-.289.761 0 1.39.02 1.903.058.514.038.914.077 1.238.115.324.039.571.077.78.096.21.02.381.039.514.039.153 0 .248-.077.267-.25l.19-1.23c.115-.347.076-.578-.095-.732-.171-.154-.4-.211-.666-.25zM94.994.077h-1.466c-.914 0-1.447.52-1.599 1.538l-2.665 17.443c-.038.25.057.365.247.365h2.532c.229 0 .362-.115.4-.365L95.28.462c.038-.27-.058-.385-.286-.385zM99.353 6.25h-1.275c-.857 0-1.333.423-1.466 1.288l-1.77 11.597c-.02.192.057.288.247.288h2.266c.19 0 .304-.096.323-.288l1.923-12.597c.019-.192-.057-.288-.248-.288zM98.65 3.73c1.122 0 1.75-.557 1.922-1.692.19-1.173-.286-1.75-1.39-1.75-1.123 0-1.79.577-1.96 1.75-.191 1.116.304 1.693 1.427 1.693zM112.946 6.212a26.004 26.004 0 0 0-2.19-.366c-.76-.096-1.598-.134-2.531-.134-1.466 0-2.684.173-3.655.5-.971.326-1.752.807-2.342 1.423-.59.615-1.028 1.365-1.352 2.211-.304.866-.533 1.827-.704 2.866-.228 1.403-.21 2.519.038 3.384.248.866.647 1.52 1.2 2 .552.48 1.237.789 2.017.962.781.154 1.619.25 2.513.25.705 0 1.314-.02 1.866-.039s.952-.057 1.218-.077c-.095.616-.21 1.116-.361 1.539-.153.423-.362.769-.667 1.019-.304.27-.704.442-1.18.558-.476.115-1.123.154-1.923.154-1.504 0-2.608-.058-3.331-.154-.724-.096-1.219-.173-1.504-.193-.171 0-.286.097-.305.308l-.228 1.192c-.095.616.152.943.78 1.02.42.077.99.153 1.695.192.704.058 1.58.077 2.646.077 1.237 0 2.284-.116 3.122-.327.838-.212 1.58-.596 2.151-1.115.571-.52 1.028-1.193 1.39-2.039.342-.846.609-1.904.818-3.154l1.695-10.923c.076-.673-.21-1.058-.876-1.134zm-3.484 10.211c-.228.077-.628.154-1.2.192-.57.058-1.141.077-1.712.077-.857 0-1.542-.077-2.037-.211-.495-.135-.876-.366-1.105-.693-.228-.326-.361-.73-.38-1.23-.02-.5.038-1.116.152-1.827.152-.981.343-1.75.552-2.327.21-.577.514-1.02.895-1.346.38-.327.837-.52 1.39-.635.552-.115 1.237-.154 2.036-.154.495 0 .952.02 1.352.058.4.038.724.077.952.135.21.076.286.23.247.442l-1.142 7.52zM122.141 5.827c-.704 0-1.37.02-1.999.058-.628.038-1.256.134-1.904.25l.819-5.404c.038-.212-.057-.327-.267-.327h-1.332c-.819 0-1.314.442-1.447 1.346l-2.646 17.327c-.038.211.038.327.228.327h2.285c.21 0 .342-.116.38-.327l1.523-10a.554.554 0 0 1 .4-.462c.762-.192 1.828-.288 3.218-.288 1.16 0 1.884.192 2.189.558.38.365.476 1.057.323 2.077l-1.237 8.115c-.038.211.057.327.286.327h2.246c.21 0 .343-.116.38-.327l1.295-8.577c.476-3.115-1.104-4.673-4.74-4.673zM135.6 5.827h-3.807l.552-3.635c.038-.211-.057-.327-.248-.327h-1.39c-.38 0-.723.116-.99.366-.266.23-.437.577-.494 1.019l-1.77 11.788c-.23 1.539-.039 2.654.57 3.366.61.711 1.79 1.077 3.503 1.077h1.104c.305 0 .648-.02.99-.077.305-.077.514-.173.648-.289.133-.115.228-.327.266-.615l.19-1.308c.02-.192-.057-.288-.228-.288-.266 0-.61.02-1.047.038-.438.02-.819.039-1.123.039-.971 0-1.542-.154-1.752-.443-.209-.288-.247-.788-.152-1.461l.971-6.52c.038-.25.152-.365.38-.365h3.485c.209 0 .342-.096.38-.307l.248-1.712c.019-.23-.076-.346-.286-.346z"/>
        </g>
    </g>
</svg>
